<svg width="12" height="9" viewBox="0 0 12 9" fill="none" xmlns="http://www.w3.org/2000/svg">
<path d="M5.99995 9C5.74466 8.99871 5.49285 8.94061 5.26281 8.82991C5.03276 8.71922 4.83024 8.5587 4.66995 8.36L0.459947 3.26C0.213941 2.95297 0.0591331 2.583 0.0131642 2.19227C-0.0328047 1.80153 0.0319145 1.40574 0.199947 1.05C0.336227 0.740826 0.55862 0.477413 0.840566 0.291223C1.12251 0.105032 1.45209 0.00393305 1.78995 0H10.2099C10.5478 0.00393305 10.8774 0.105032 11.1593 0.291223C11.4413 0.477413 11.6637 0.740826 11.7999 1.05C11.968 1.40574 12.0327 1.80153 11.9867 2.19227C11.9408 2.583 11.786 2.95297 11.5399 3.26L7.32995 8.36C7.16965 8.5587 6.96713 8.71922 6.73709 8.82991C6.50704 8.94061 6.25524 8.99871 5.99995 9Z" fill="#162427"/>
</svg>
